{"title":"Shangri-La","uid":10542245,"size":1309578639,"categoryP":"video","categoryS":"tv_shows","magnet":"?xt=urn:btih:60183f890aacab3e1921516f42741fe34da61959&amp;dn=Shangri-La&amp;tr=udp%3A%2F%2Ftracker.openbittorrent.com%3A80&amp;tr=udp%3A%2F%2Fopen.demonii.com%3A1337&amp;tr=udp%3A%2F%2Ftracker.coppersurfer.tk%3A6969&amp;tr=udp%3A%2F%2Fexodus.desync.com%3A6969","seeders":1,"leechers":0,"uploader":"p7trick","files":-1,"time":1405242606,"description":"watchcartoononline\n\nShangri-La ep 1-24 ENGLISH DUBBED\n_________________________________________________________\n\nFormat                                   : MPEG-4\nFormat profile                           : Base Media\nCodec ID                                 : isom\nFile size                                : 62.2 MiB\nDuration                                 : 23mn 41s\nOverall bit rate mode                    : Variable\nOverall bit rate                         : 367 Kbps\nWriting application                      : Lavf52.68.0\n\nVideo\nID                                       : 1\nFormat                                   : AVC\nFormat/Info                              : Advanced Video Codec\nFormat profile                           : &lt;a class=&quot;__cf_email__&quot; href=&quot;/cdn-cgi/l/email-protection&quot; data-cfemail=&quot;ce8cafbdaba2a7a0ab8e82fde0fe&quot;&gt;[email&amp;#160;protected]&lt;/a&gt;&lt;script cf-hash='f9e31' type=&quot;text/javascript&quot;&gt;\n/* &lt;![CDATA[ */!function(){try{var t=&quot;currentScript&quot;in document?document.currentScript:function(){for(var t=document.getElementsByTagName(&quot;script&quot;),e=t.length;e--;)if(t[e].getAttribute(&quot;cf-hash&quot;))return t[e]}();if(t&amp;&amp;t.previousSibling){var e,r,n,i,c=t.previousSibling,a=c.getAttribute(&quot;data-cfemail&quot;);if(a){for(e=&quot;&quot;,r=parseInt(a.substr(0,2),16),n=2;a.length-n;n+=2)i=parseInt(a.substr(n,2),16)^r,e+=String.fromCharCode(i);e=document.createTextNode(e),c.parentNode.replaceChild(e,c)}}}catch(u){}}();/* ]]&gt; */&lt;/script&gt;\nFormat settings, CABAC                   : No\nFormat settings, ReFrames                : 1 frame\nCodec ID                                 : avc1\nCodec ID/Info                            : Advanced Video Coding\nDuration                                 : 23mn 41s\nBit rate                                 : 300 Kbps\nWidth                                    : 580 pixels\nHeight                                   : 322 pixels\nDisplay aspect ratio                     : 16:9\nFrame rate mode                          : Constant\nFrame rate                               : 23.976 fps\nColor space                              : YUV\nChroma subsampling                       : 4:2:0\nBit depth                                : 8 bits\nScan type                                : Progressive\nBits/(Pixel*Frame)                       : 0.067\nStream size                              : 50.9 MiB (82%)\n\nAudio\nID                                       : 2\nFormat                                   : AAC\nFormat/Info                              : Advanced Audio Codec\nFormat profile                           : LC\nCodec ID                                 : 40\nDuration                                 : 23mn 41s\nBit rate mode                            : Variable\nBit rate                                 : 64.1 Kbps\nChannel(s)                               : 2 channels\nChannel positions                        : Front: L R\nSampling rate                            : 48.0 KHz\nCompression mode                         : Lossy\nStream size                              : 10.9 MiB (17%)\nLanguage                                 : English\n_________________________________________________________\n\nSummary:\nIn a neo-futuristic age, Tokyo has turned into the world's largest &quot;jungle-polis&quot; that absorbs carbon dioxide, by-product of runaway global warming. The tower city called Atlas houses the rich and privileged, and is the object of yearning of all those who are not allowed to enter, struggling in the squalor of the surrounding jungle. But Atlas, the towering achievement of human ingenuity, was founded on dark ancient secrets which cause a sudden whirl of events. Festooned by colourful characters such as a riotous teenage girl, a child genius, a juvenile princess, a drag queen, a female doctor, an army major, and an elderly gentleman and lady, Shangri-La's hard-core world view plays out as an action saga.\n\nFor updates/requests:\nTwitter - @p7tricktorrent\nFacebook - /p7tricktorrent\nTPB - /user/p7trick/\nKAT - /user/iPirate7\n_________________________________________________________\n\nSEED!\n\nshare ratio:\n&quot;Scumbag = 0.1:1\nLeecher = 0.999:1\nMinimum = 1:1\nGood = 3:1\nGreat = 5:1\nAwesome = 10:1\n1337 = 100:1&quot;\t\t","torrent":{"xt":"urn:btih:60183f890aacab3e1921516f42741fe34da61959","amp;dn":"Shangri-La","amp;tr":["udp%3A%2F%2Ftracker.openbittorrent.com%3A80","udp%3A%2F%2Fopen.demonii.com%3A1337","udp%3A%2F%2Ftracker.coppersurfer.tk%3A6969","udp%3A%2F%2Fexodus.desync.com%3A6969"],"infoHash":"60183f890aacab3e1921516f42741fe34da61959","infoHashBuffer":{"type":"Buffer","data":[96,24,63,137,10,172,171,62,25,33,81,111,66,116,31,227,77,166,25,89]},"announce":[],"urlList":[]}}